<svg id="Layer_1" enable-background="new 0 0 512 512" height="512" viewBox="0 0 512 512" width="512" xmlns="http://www.w3.org/2000/svg"><g><g clip-rule="evenodd" fill-rule="evenodd"><path d="m171.942 39.811-2.299 93.511 59.942-17.482-28.721-105.84-28.518 13.377z" fill="#ffc144"/><path d="m229.585 115.84-59.942 17.482 2.299-93.511-50.532 18.153c-11.534 5.801-17.027 11.294-22.38 23.011-5.73 12.545-11.296 24.729-16.785 36.744 22.869-10.662 22.174 15.406 48.516 16.225 0 0-6.519 35.109-64.5 18.769-9.89 21.651-19.802 43.351-30.262 66.249l80.003 50.002v-22.2c16.371-19.2 26.571 4.8 50.871-5.4 0 0 8.658 34.643-50.871 43.872v118.929l-10 67.836 102.478 29.999 21.105-10v-40.001-75.264c-16.371 19.2-26.571-4.8-50.871 5.4 0 0-8.658-34.643 50.871-43.871z" fill="#ffcd69"/><g fill="#5cd0b3"><path d="m66.262 152.713c57.982 16.34 64.5-18.769 64.5-18.769-26.341-.818-25.647-26.887-48.516-16.225-5.376 11.769-10.677 23.375-15.984 34.994z"/><path d="m166.874 241.363c-24.3 10.2-34.5-13.8-50.871 5.4v22.2 16.271c59.529-9.228 50.871-43.871 50.871-43.871z"/><path d="m229.585 338.263c-59.529 9.228-50.871 43.871-50.871 43.871 24.3-10.2 34.5 13.8 50.871-5.4z"/><path d="m282.415 370.592v38.472c59.529-9.229 50.871-43.872 50.871-43.872-24.3 10.2-34.5-13.8-50.871 5.4z"/></g><path d="m282.415 370.592c16.371-19.2 26.571 4.8 50.871-5.4 0 0 8.658 34.643-50.871 43.872v42.935 40.001l21.105 10 102.477-30.001-10-67.836v-108.676c-16.371 19.2-26.571-4.8-50.871 5.4 0 0-8.658-34.643 50.871-43.872v11.948l80.003-50.001c-21.803-47.731-41.228-90.255-63.031-137.986-5.353-11.717-10.845-17.21-22.38-23.011l-50.531-18.154 2.299 93.511-59.942-17.482v48.837c59.529 9.229 50.871 43.871 50.871 43.871-24.3-10.2-34.5 13.8-50.871-5.4z" fill="#ffcd69"/><path d="m345.126 300.887c24.3-10.2 34.5 13.8 50.871-5.4v-26.523-11.948c-59.529 9.228-50.871 43.871-50.871 43.871z" fill="#5cd0b3"/><path d="m282.415 203.149c16.371 19.2 26.571-4.8 50.871 5.4 0 0 8.658-34.643-50.871-43.871z" fill="#5cd0b3"/><path d="m282.415 115.84 59.942 17.482-2.299-93.511-.404-16.434-28.519-13.377z" fill="#ffc144"/><path d="m282.415 115.84 28.72-105.84c-16.763 8.745-35.779 13.349-55.135 13.349-19.357 0-38.372-4.604-55.135-13.349l28.721 105.84v222.423 38.471 75.264h52.83v-42.935-38.472-167.442-38.471-48.838z" fill="#ffda8f"/></g><g><path d="m485.096 214.807-63.031-137.987c-6.227-13.631-13.287-20.902-26.982-27.79-.361-.182-.732-.341-1.112-.478l-44.084-15.837-.235-9.585c-.093-3.788-2.319-7.198-5.75-8.808l-28.52-13.376c-2.676-1.254-5.769-1.261-8.448-.021-.402.186-.783.405-1.152.639-.269.107-.536.219-.799.351-14.937 7.481-31.875 11.435-48.983 11.435s-34.046-3.954-48.983-11.434c-.262-.131-.529-.244-.797-.35-.37-.235-.751-.454-1.153-.64-2.681-1.241-5.774-1.234-8.448.021l-28.519 13.377c-3.431 1.609-5.657 5.02-5.75 8.808l-.236 9.585-44.084 15.836c-.38.137-.751.296-1.112.478-13.694 6.887-20.755 14.159-26.982 27.79l-63.032 137.986c-2.086 4.567-.462 9.974 3.796 12.636l75.303 47.063v128.924l-9.894 67.111c-.728 4.936 2.295 9.653 7.083 11.056l102.478 30.001c.92.269 1.866.402 2.81.402 1.469 0 2.933-.324 4.282-.963l21.105-10c3.492-1.654 5.718-5.173 5.718-9.037v-30.002h32.829.001v30.002c0 3.864 2.227 7.383 5.718 9.037l21.104 10c1.35.639 2.813.963 4.282.963.943 0 1.89-.134 2.81-.402l102.478-30.001c4.789-1.402 7.812-6.12 7.084-11.056l-9.894-67.111v-128.924l75.303-47.063c4.258-2.663 5.883-8.069 3.796-12.636zm-155.041-174.974c.001.147.004.295.011.441l1.958 79.617-37.388-10.903 23.032-84.878 12.141 5.694zm-147.864-10.028 12.141-5.695 23.032 84.879-37.387 10.903zm-81.364 100.719c3.822 3.432 8.514 7.645 15.234 10.493-.769.661-1.634 1.306-2.607 1.91-7.475 4.647-18.79 5.631-33.074 2.946l8.977-19.653c4.631-1.825 6.01-.6 11.47 4.304zm25.176 121.555c3.731-4.055 5.355-3.562 12.628-1.287 4.903 1.535 10.928 3.409 18.219 3.216-.481 1.04-1.084 2.112-1.836 3.198-5.001 7.215-14.939 12.718-29.011 16.143zm93.582 120.338c-3.099 2.95-5.043 2.357-11.653.29-4.903-1.534-10.916-3.398-18.219-3.216.481-1.04 1.084-2.112 1.836-3.198 4.884-7.045 14.485-12.453 28.036-15.893zm52.829 69.581h-32.829v-161.478c0-5.522-4.477-10-10-10s-10 4.478-10 10v49.355c-21.518 4.567-36.632 13.198-44.955 25.734-9.341 14.07-6.363 27.47-5.993 28.951.708 2.83 2.616 5.211 5.224 6.517 2.609 1.306 5.659 1.409 8.348.279 7.834-3.289 13.093-1.644 19.75.439 3.75 1.173 8.328 2.605 13.38 2.605 1.381 0 2.8-.116 4.245-.365v91.637l-11.948 5.661-90.472-26.487 8.731-59.226c.071-.482.107-.97.107-1.458v-110.34c22.034-4.512 37.482-13.208 45.929-25.932 9.341-14.07 6.364-27.47 5.994-28.951-.708-2.83-2.615-5.211-5.224-6.517-2.608-1.306-5.659-1.408-8.348-.279-7.835 3.287-13.094 1.644-19.75-.439-5.005-1.565-11.489-3.586-18.6-2.053v-40.689c0-5.522-4.477-10-10-10s-10 4.478-10 10v61.96l-57.26-35.787 23.12-50.614c8.283 1.884 15.961 2.837 22.997 2.837 11.424 0 21.177-2.483 29.155-7.443 14.342-8.918 17.201-22.342 17.48-23.844.533-2.868-.214-5.826-2.044-8.099-1.831-2.271-4.562-3.631-7.478-3.722-8.494-.264-12.593-3.945-17.783-8.605-3.827-3.437-8.766-7.866-15.659-9.507l9.595-21.006c4.247-9.297 8.006-13.244 17.25-17.966l36.21-13.008-1.94 78.919c-.079 3.19 1.37 6.226 3.899 8.172s5.834 2.567 8.898 1.674l47.142-13.748v61.346c0 5.522 4.477 10 10 10s10-4.478 10-10v-74.679c0-.885-.117-1.766-.349-2.619l-23.383-86.173c12.858 4.143 26.463 6.3 40.147 6.3s27.289-2.157 40.147-6.3l-23.383 86.172c-.231.854-.349 1.734-.349 2.619l-.001 326.157c.001 0 .001 0 0 0zm20.001-67.016c3.144-3.031 5.067-2.445 11.728-.363 4.903 1.534 10.906 3.403 18.217 3.216-.425.921-.944 1.866-1.578 2.821-4.81 7.246-14.526 12.791-28.366 16.292v-21.966zm0-198.187c13.591 3.44 23.218 8.854 28.11 15.913.752 1.085 1.354 2.158 1.836 3.197-7.288-.207-13.315 1.682-18.219 3.216-6.661 2.083-8.584 2.669-11.728-.362v-21.964zm93.582 113.697c-3.524 3.707-5.254 3.18-12.329.967-4.902-1.533-10.927-3.408-18.219-3.216.481-1.04 1.084-2.112 1.836-3.198 4.966-7.164 14.798-12.639 28.712-16.07zm20-39.571v-61.96c0-5.522-4.478-10-10-10s-10 4.478-10 10v59.528c-21.875 4.529-37.221 13.205-45.63 25.871-9.341 14.07-6.364 27.47-5.994 28.951.708 2.83 2.616 5.211 5.225 6.517 2.608 1.307 5.659 1.408 8.348.279 7.836-3.289 13.094-1.644 19.751.439 3.75 1.173 8.328 2.605 13.38 2.605 1.597 0 3.241-.148 4.921-.488v91.498c0 .488.036.976.106 1.458l8.731 59.226-90.473 26.487-11.947-5.661v-68.206c21.557-4.563 36.697-13.199 45.029-25.749 9.341-14.071 6.363-27.47 5.992-28.951-.707-2.83-2.615-5.211-5.224-6.517s-5.659-1.408-8.348-.279c-7.837 3.288-13.094 1.644-19.751-.439-4.792-1.499-10.942-3.416-17.699-2.23v-132.864c1.471.258 2.914.378 4.319.378 5.052 0 9.631-1.433 13.38-2.605 6.658-2.083 11.917-3.728 19.751-.439 2.688 1.129 5.738 1.027 8.348-.279 2.608-1.306 4.517-3.687 5.224-6.517.371-1.481 3.348-14.88-5.992-28.95-8.332-12.551-23.472-21.186-45.029-25.749v-27.1l47.142 13.749c3.065.89 6.37.271 8.897-1.675 2.529-1.946 3.978-4.981 3.899-8.172l-1.94-78.92 36.21 13.009c9.244 4.722 13.003 8.669 17.25 17.966l59.384 130.003z"/><path d="m229.593 225.52h-.008c-5.523 0-9.996 4.478-9.996 10s4.481 10 10.004 10 10-4.478 10-10-4.477-10-10-10z"/></g></g></svg>